<?xml version="1.0" encoding="UTF-8"?>
<svg xmlns="http://www.w3.org/2000/svg"
     viewBox="0 0 1200 800"
     preserveAspectRatio="xMidYMid meet">

  <!-- TRACK OUTLINE FROM ORIGINAL FILE -->
  <path id="trackPath"
        d="M 265 240
           L 300 220
           L 360 200
           L 420 195
           L 480 200
           L 530 215
           L 570 240
           L 610 275
           L 645 320
           L 675 375
           L 690 440
           L 695 495
           L 685 545
           L 660 595
           L 620 640
           L 565 675
           L 510 695
           L 455 705
           L 400 705
           L 350 690
           L 305 665
           L 270 630
           L 240 585
           L 220 530
           L 215 475
           L 225 420
           L 245 370
           L 270 325
           L 295 285
           L 265 240 Z"

        fill="none"
        stroke="#000"
        stroke-width="8"
        stroke-linecap="round"
        stroke-linejoin="round"/>

  <!-- START / FINISH LINE -->
  <line x1="300" y1="220"
        x2="360" y2="200"
        stroke="#FF0000"
        stroke-width="6"/>

  <text x="300" y="185"
        font-size="26"
        font-weight="bold"
        fill="#FF0000">
    START
  </text>

</svg>
