<svg xmlns="http://www.w3.org/2000/svg"
     viewBox="0 0 1273.507 899.33447">

  <!-- Bahrain International Circuit - Outer Circuit (track line) -->
  <path id="track"
        d="m -185.48946,167.59941 c 6.45503,0.59769 13.11469,2.74348 19.14527,5.33557 5.89598,2.53424 11.70381,5.94271 16.63442,10.04342 5.6359,4.68729 10.64805,10.41609 15.06513,16.32056 5.83558,7.80062 10.00732,16.85641 15.69285,24.7947 5.40408,7.54532 11.10003,15.00593 17.57599,21.65613 16.854079,17.30755 34.437832,34.03847 52.414114,50.21712 18.640364,16.77633 37.121536,34.39751 57.4358239,48.64783 7.7236011,5.41805 17.6851621,7.18618 26.6778421,10.35728 10.884928,3.83837 22.513767,6.04616 32.95498,10.67113 5.147016,2.27989 10.008967,5.92215 13.809707,10.04343 4.882636,5.29443 8.929245,11.75262 12.240421,18.2037 2.756725,5.37086 5.245653,11.31004 5.963282,17.26213 1.06089,8.79918 0.18552,18.04614 -0.627713,26.9917 -0.96529,10.61819 -3.600002,21.08749 -4.707855,31.69955 -0.879908,8.42859 -2.374557,17.16218 -1.255428,25.42242 1.07787,7.95571 3.822825,16.32004 7.846426,23.22541 3.7182,6.38124 9.71288,11.67238 15.37899,16.63442 12.0145,10.52157 24.69696,20.43321 37.66283,29.81641 26.78934,19.38702 54.75567,37.17741 81.60281,56.49426 16.04664,11.54576 32.7332,21.52098 47.54934,34.36734 3.28295,2.84648 6.87911,8.06151 7.84642,12.08349 1.02045,4.24292 -0.31413,10.79885 -2.35393,14.43742 -1.8311,3.26629 -6.64129,5.14214 -10.35728,6.90485 -4.44429,2.10819 -9.27949,2.94495 -14.12356,3.45242 -6.14092,0.64334 -15.08883,-0.25778 -21.34228,-0.94156 -98.99326,-10.82431 -195.477525,-23.54284 -294.397825,-32.32727 -9.464971,-0.84052 -19.230979,1.6776 -28.247126,4.394 -7.304415,2.20069 -14.545161,5.88446 -20.714559,10.35727 -6.38488,4.62904 -11.93502,10.76256 -16.94828,16.94828 -7.95949,9.82098 -14.88582,20.55986 -21.96998,31.07184 -2.6454,3.92544 -6.18291,7.96774 -7.21871,12.24042 -0.6381,2.63217 0.31065,6.67552 2.197,8.47414 2.61226,2.49076 7.30004,3.91294 11.29885,4.394 37.744163,4.54065 75.922379,7.58504 113.930072,10.67113 10.9539915,0.88943 21.9624734,1.24368 32.954981,1.25543 184.749617,0.19749 369.741217,1.19531 554.271397,-0.62771 6.08561,-0.0601 12.47366,-2.08232 17.57599,-5.02171 4.52261,-2.60542 8.95285,-6.9207 11.29885,-11.61271 3.82652,-7.65303 5.88465,-16.7757 7.21871,-25.42242 1.49065,-9.6616 2.23393,-19.83255 1.25542,-29.50255 -0.80001,-7.90599 -3.85186,-15.67988 -6.59099,-23.22541 -2.80568,-7.72885 -6.386,-15.2219 -10.04342,-22.59771 -2.61972,-5.28309 -5.2861,-10.66489 -8.788,-15.37899 -4.65838,-6.27089 -10.05934,-12.12718 -15.69285,-17.57599 -7.13,-6.89623 -14.3983,-13.94491 -22.5977,-19.45913 -9.69045,-6.51697 -20.18343,-12.34856 -31.07184,-16.63442 -18.61415,-7.32684 -38.32465,-12.03161 -57.43582,-18.2037 -7.77591,-2.51129 -16.07271,-4.06506 -23.22542,-7.84643 -9.27247,-4.90201 -18.09275,-11.30029 -26.05012,-18.2037 -7.8401,-6.80167 -15.31691,-14.5233 -21.34228,-22.91156 -4.64577,-6.46764 -7.82096,-14.158 -10.67113,-21.65613 -3.95007,-10.39171 -7.02964,-21.21369 -9.72957,-32.01341 -1.79869,-7.19474 -3.85577,-14.63191 -3.76628,-21.96998 0.11975,-9.81944 1.4505,-20.06919 4.39399,-29.50256 5.73988,-18.39529 13.98901,-36.18009 21.65613,-53.9834 10.85044,-25.19509 20.49466,-51.39189 33.89656,-75.01181 5.53414,-9.75353 14.29301,-17.94509 22.91155,-25.10856 7.49278,-6.22776 16.31219,-12.42204 25.42242,-15.06513 7.83805,-2.274 17.2541,-0.94852 25.42241,0.31386 3.33978,0.51615 6.44554,2.83245 9.10185,5.02171 6.86402,5.65716 14.38992,11.17648 19.45913,18.51756"
        stroke="white"
        stroke-width="18"
        fill="none"
        stroke-linecap="round"
        stroke-linejoin="round" />

</svg>
