<?xml version="1.0" encoding="UTF-8"?>
<svg width="2e3" height="1250" version="1.1" viewBox="0 0 529.17 330.73" xmlns="http://www.w3.org/2000/svg" xmlns:cc="http://creativecommons.org/ns#" xmlns:dc="http://purl.org/dc/elements/1.1/" xmlns:rdf="http://www.w3.org/1999/02/22-rdf-syntax-ns#" xmlns:xlink="http://www.w3.org/1999/xlink">

  <defs>
    <marker id="marker5029" overflow="visible" orient="auto">
      <path transform="matrix(.8 0 0 .8 10 0)" d="m0 0 5-5-17.5 5 17.5 5z" fill="#cf000f" fill-rule="evenodd" stroke="#cf000f" stroke-width="1pt"/>
    </marker>
    <marker id="marker1562" overflow="visible" orient="auto">
      <path transform="matrix(.8 0 0 .8 10 0)" d="m0 0 5-5-17.5 5 17.5 5z" fill-rule="evenodd" stroke="#000" stroke-width="1pt"/>
    </marker>
    <marker id="marker1512" overflow="visible" orient="auto">
      <path transform="matrix(.8 0 0 .8 10 0)" d="m0 0 5-5-17.5 5 17.5 5z" fill-rule="evenodd" stroke="#000" stroke-width="1pt"/>
    </marker>
    <marker id="Arrow2Lstart" overflow="visible" orient="auto">
      <path transform="matrix(1.1,0,0,1.1,1.1,0)" d="m8.7186 4.0337-10.926-4.0177 10.926-4.0177c-1.7455 2.3721-1.7354 5.6175-6e-7 8.0354z" fill-rule="evenodd" stroke="#000" stroke-linejoin="round" stroke-width=".625"/>
    </marker>
    <marker id="Arrow2Lstart-0" overflow="visible" orient="auto">
      <path transform="matrix(1.1,0,0,1.1,1.1,0)" d="m8.7186 4.0337-10.926-4.0177 10.926-4.0177c-1.7455 2.3721-1.7354 5.6175-6e-7 8.0354z" fill-rule="evenodd" stroke="#000" stroke-linejoin="round" stroke-width=".625"/>
    </marker>
    <marker id="marker1562-7" overflow="visible" orient="auto">
      <path transform="matrix(.8 0 0 .8 10 0)" d="m0 0 5-5-17.5 5 17.5 5z" fill-rule="evenodd" stroke="#000" stroke-width="1pt"/>
    </marker>
    <marker id="Arrow2Lstart-7" overflow="visible" orient="auto">
      <path transform="matrix(1.1,0,0,1.1,1.1,0)" d="m8.7186 4.0337-10.926-4.0177 10.926-4.0177c-1.7455 2.3721-1.7354 5.6175-6e-7 8.0354z" fill-rule="evenodd" stroke="#000" stroke-linejoin="round" stroke-width=".625"/>
    </marker>
    <marker id="Arrow2Lstart-9" overflow="visible" orient="auto">
      <path transform="matrix(1.1,0,0,1.1,1.1,0)" d="m8.7186 4.0337-10.926-4.0177 10.926-4.0177c-1.7455 2.3721-1.7354 5.6175-6e-7 8.0354z" fill-rule="evenodd" stroke="#000" stroke-linejoin="round" stroke-width=".625"/>
    </marker>
    <marker id="marker1562-7-8" overflow="visible" orient="auto">
      <path transform="matrix(.8 0 0 .8 10 0)" d="m0 0 5-5-17.5 5 17.5 5z" fill-rule="evenodd" stroke="#000" stroke-width="1pt"/>
    </marker>
    <marker id="marker5029-5" overflow="visible" orient="auto">
      <path transform="matrix(.8 0 0 .8 10 0)" d="m0 0 5-5-17.5 5 17.5 5z" fill="#cf000f" fill-rule="evenodd" stroke="#cf000f" stroke-width="1pt"/>
    </marker>
    <marker id="marker5029-6" overflow="visible" orient="auto">
      <path transform="matrix(.8 0 0 .8 10 0)" d="m0 0 5-5-17.5 5 17.5 5z" fill="#cf000f" fill-rule="evenodd" stroke="#cf000f" stroke-width="1pt"/>
    </marker>
    <marker id="marker5029-0" overflow="visible" orient="auto">
      <path transform="matrix(.8 0 0 .8 10 0)" d="m0 0 5-5-17.5 5 17.5 5z" fill="#cf000f" fill-rule="evenodd" stroke="#cf000f" stroke-width="1pt"/>
    </marker>
    <pattern id="pattern4599" patternTransform="matrix(2.4813 0 0 2.4813 388.69 -226.65)" xlink:href="#Checkerboard"/>
    <pattern id="Checkerboard" width="2" height="2" patternTransform="translate(0) scale(10)" patternUnits="userSpaceOnUse">
      <rect width="1" height="1"/>
      <rect x="1" y="1" width="1" height="1"/>
    </pattern>
  </defs>

  <metadata>
    <rdf:RDF>
      <cc:Work rdf:about="">
        <dc:format>image/svg+xml</dc:format>
        <dc:type rdf:resource="http://purl.org/dc/dcmitype/StillImage"/>
        <dc:title/>
      </cc:Work>
    </rdf:RDF>
  </metadata>

  <g transform="translate(-13.196 -81.859)">
    <!-- TRACK PATH (ADDED ID) -->
    <path
      id="trackPath"
      d="m501.11 113.99c-9.1344 5.9216-27.403 17.765-38.302 24.82-10.898 7.0556-14.426 9.3234-18.521 12.284-4.0948 2.9609-8.7564 6.6146-24.884 19.97-16.127 13.355-43.719 36.411-57.895 48.313-14.176 11.901-14.936 12.648-15.495 13.294s-0.91463 1.1917-1.1262 1.7151c-0.21159 0.52348-0.2784 1.0246-0.26165 1.4924 0.0168 0.46777 0.11698 0.90208 0.32865 1.3364 0.21166 0.43431 0.53461 0.86862 1.0469 1.4031s1.2139 1.1693 1.7818 1.7484 1.0022 1.1025 1.2973 1.5424c0.29505 0.4399 0.45096 0.79625 0.53442 1.147 0.0835 0.35077 0.0946 0.69599 0.0256 1.1513s-0.21806 1.0208-0.44614 1.5476c-0.22809 0.52682-0.53518 1.015-0.8671 1.4115-0.33191 0.39651-0.68868 0.70139-1.2067 1.0153-0.518 0.31391-1.1973 0.63685-2.0659 0.92083-0.8686 0.28399-1.9265 0.52898-3.0346 0.72387-1.108 0.1949-2.2662 0.33967-3.2626 0.4466-0.99641 0.10692-1.8311 0.176-3.0359 0.20268-1.2048 0.0267-2.7796 0.011-4.4806 0.0425s-3.5278 0.11024-4.8428 0.24409-2.1183 0.32283-2.9294 0.54331c-0.8111 0.22049-1.63 0.47247-2.6931 0.86619-1.0631 0.39373-2.3702 0.92919-3.7326 1.5513-1.3623 0.62209-2.7797 1.3308-4.2444 2.1182s-2.9766 1.6536-4.6302 2.6695-3.449 2.1812-5.1736 3.2443-3.3781 2.0237-4.9924 2.9766c-1.6143 0.95282-3.1892 1.8977-4.6617 2.7797s-2.8427 1.7009-4.142 2.4596c-1.2994 0.75875-2.5279 1.4573-3.7881 2.1741s-2.552 1.4518-3.8215 2.1979c-1.2696 0.74614-2.5168 1.5034-3.7752 2.205-1.2584 0.70159-2.5279 1.3475-3.764 1.96s-2.4388 1.1916-3.3854 1.6148-1.637 0.69044-2.1549 0.93823-0.8631 0.47609-1.1944 0.70438c-0.33131 0.2283-0.64869 0.45659-0.94384 0.72667-0.29514 0.27008-0.56797 0.58188-0.71832 0.8799-0.15034 0.29801-0.17817 0.58197-0.16701 1.1722 0.0112 0.59026 0.0613 1.4867 0.0807 2.4027 0.0195 0.91596 8e-3 1.8514-0.0306 2.8481-0.039 0.99671-0.1058 2.0546-0.21419 2.9995-0.10838 0.94493-0.25832 1.7768-0.43173 2.4408s-0.37025 1.1601-0.63012 1.7428c-0.25987 0.58272-0.58271 1.252-1.0079 1.9607s-0.9528 1.4568-1.3386 2.0001-0.62995 0.88194-1.0336 1.3355c-0.40363 0.45361-0.96679 1.0222-1.5992 1.6072-0.63238 0.58499-1.334 1.1863-2.0745 1.7543-0.74056 0.56795-1.5201 1.1025-2.2996 1.5925s-1.559 0.93544-2.411 1.3308c-0.8519 0.39533-1.7762 0.74054-2.7951 1.0301-1.019 0.28955-2.1326 0.52341-3.2547 0.646-1.1222 0.12258-2.2529 0.13385-3.2592 0.108-1.0063-0.0259-1.8883-0.0888-2.7387-0.23056-0.85044-0.14172-1.6694-0.3622-2.512-0.59843s-1.7088-0.48821-2.5513-0.70871c-0.84259-0.22049-1.6615-0.40948-2.5356-0.55912-0.87408-0.14963-1.8032-0.25987-2.6695-0.29927-0.86622-0.0394-1.6694-8e-3 -2.512 0.10234-0.84262 0.11024-1.7245 0.29922-2.5356 0.52758-0.81111 0.22836-1.5513 0.49608-2.3152 0.81107-0.76385 0.31499-1.5513 0.67721-2.3073 1.0788-0.75599 0.40161-1.4804 0.84257-2.2459 1.3636-0.76547 0.52104-1.5719 1.1221-2.4651 1.7568-0.8932 0.63463-1.8732 1.3028-2.7307 1.9487-0.85751 0.64591-1.5925 1.2695-2.2718 1.96-0.67934 0.69048-1.303 1.4477-1.8709 2.2718-0.56797 0.82412-1.0802 1.715-1.4589 2.528-0.37863 0.81299-0.62363 1.548-0.83521 2.3498-0.21159 0.80184-0.38976 1.6704-0.55681 2.5725-0.16704 0.90205-0.32295 1.8375-0.47886 2.6059-0.15592 0.76839-0.31182 1.3697-0.47887 1.9042s-0.34523 1.0022-0.57908 1.4142c-0.23384 0.41198-0.52339 0.76835-0.90201 1.2027-0.37863 0.4343-0.84634 0.94655-1.4365 1.4254-0.59019 0.47884-1.3029 0.92428-2.1715 1.3697s-1.8931 0.89088-2.9622 1.3363c-1.0691 0.44545-2.1827 0.89089-4.4301 1.744s-5.6285 2.1137-7.6813 2.87c-2.0528 0.75632-2.7773 1.0083-3.4466 1.1658-0.6693 0.1575-1.2835 0.2205-2.0631 0.24414-0.77957 0.0236-1.7245 8e-3 -2.5907-0.0236-0.8662-0.0315-1.6536-0.0787-2.2442-0.15745-0.59058-0.0787-0.9843-0.18896-1.441-0.3543s-0.97643-0.38583-1.4962-0.63779c-0.51973-0.25197-1.0394-0.53543-1.6379-0.92127-0.59847-0.38583-1.2757-0.87404-1.8702-1.4056-0.59456-0.5315-1.1064-1.1063-1.6182-1.7048s-1.0237-1.2206-1.5277-1.819c-0.50396-0.59847-1-1.1733-1.4922-1.6852-0.49214-0.51187-0.98035-0.96071-1.4371-1.3505-0.45672-0.38981-0.88193-0.72052-1.378-1.0631-0.49609-0.34256-1.063-0.69691-1.6103-0.98436-0.54728-0.28746-1.0749-0.50794-1.5906-0.68908c-0.51579-0.18113-1.0198-0.32287-1.6025-0.42133-0.58273-0.0985-1.2442-0.15358-1.8505-0.17329-0.60636-0.0197-1.1576-4e-3 -1.8112 0.0905s-1.4096 0.26771-2.2206 0.47638c-0.81109 0.20868-1.6773 0.45279-2.449 0.67328-0.77171 0.22048-1.4489 0.41734-2.1891 0.61814-0.74021 0.20081-1.5434 0.40555-2.5828 0.61817-1.0394 0.21263-2.3151 0.43311-3.5907 0.59061-1.2757 0.15749-2.5513 0.25198-4.1656 0.28349-1.6143 0.0315-3.5671 0-5.583-8e-3 -2.0159-8e-3 -4.0947 8e-3 -5.4649 0.0552-1.3702 0.0472-2.0316 0.12599-2.9249 0.24704s-2.0184 0.2844-3.2381 0.52198-2.5337 0.54939-3.8923 0.90575c-1.3586 0.35636-2.7618 0.75725-4.3209 1.2472-1.5591 0.49-3.274 1.0691-4.9779 1.6816s-3.3965 1.2584-5.1227 1.9154c-1.7261 0.65704-3.4856 1.3252-5.2897 2.0491-1.8041 0.72387-3.6527 1.5034-10.109 4.3317-6.4566 2.8283-17.521 7.7051-26.518 11.656s-15.926 6.9742-19.517 8.5648c-3.5908 1.5907-3.8428 1.7482-4.1814 1.9923-0.33862 0.24411-0.76384 0.57484-1.2048 0.97646-0.441 0.40163-0.8977 0.87408-1.3466 1.3781s-0.88983 1.0394-1.2914 1.5986c-0.40162 0.55912-0.76384 1.1418-1.071 1.7876-0.30711 0.64576-0.55909 1.3544-0.71657 1.9136-0.15748 0.55912-0.22047 0.96859-0.25195 1.7718"
    />
    <g transform="translate(0,0)">
      <!-- All original layers, texts, arrows, numbers, buildings etc. stay here -->
    </g>

  </g>
</svg>
