<?xml version="1.0" encoding="UTF-8"?>
<svg width="900" height="400" viewBox="0 0 529 330" xmlns="http://www.w3.org/2000/svg">
    <rect width="100%" height="100%" fill="#000"/>
    
    <!-- TRACK OUTLINE -->
    <path 
        d="M501.11 113.99
           C480 128 455 145 430 166
           C405 187 380 212 360 232
           C340 252 330 262 325 270
           C320 278 320 285 323 292
           C326 299 332 304 339 308
           C346 312 355 314 366 314
           C377 314 390 312 402 309
           C414 306 426 302 439 296
           C452 290 465 283 476 276
           C487 269 496 262 503 255
           C510 248 515 240 519 231
           C523 222 525 212 526 203
           C527 194 527 186 526 175
           C525 164 523 150 520 138
           C517 126 513 118 508 112
           C503 106 496 102 488 100
           C480 98 470 98 461 101
           C452 104 444 110 437 116
           C430 122 424 129 417 137
           C410 145 402 153 393 162
           C384 171 374 181 361 193
           C348 205 333 218 319 229
           C305 240 292 249 280 256
           C268 263 257 268 244 273
           C231 278 217 283 203 288
           C189 293 175 299 160 305
           C145 311 130 318 115 325
           C100 332 85 339 72 344
           C59 349 48 353 39 356"
        fill="none" 
        stroke="#FFFFFF" 
        stroke-width="6" 
        stroke-linecap="round"
        stroke-linejoin="round"
    />
    <!-- FINISH LINE -->
    <rect 
        x="360" 
        y="185" 
        width="18" 
        height="6" 
        fill="#FFF"
    />

    <!-- GRID PATTERN FOR FINISH LINE -->
    <rect 
        x="360" 
        y="185" 
        width="18" 
        height="6" 
        fill="none" 
        stroke="#000" 
        stroke-width="1"
    />

    <!-- OPTIONAL: START POINT MARKER -->
    <circle 
        cx="360" 
        cy="188" 
        r="4" 
        fill="#ff0000"
    />

    <!-- TRACK SHADOW -->
    <path 
        d="M501.11 113.99
           C480 128 455 145 430 166
           C405 187 380 212 360 232
           C340 252 330 262 325 270
           C320 278 320 285 323 292
           C326 299 332 304 339 308
           C346 312 355 314 366 314
           C377 314 390 312 402 309
           C414 306 426 302 439 296
           C452 290 465 283 476 276
           C487 269 496 262 503 255
           C510 248 515 240 519 231
           C523 222 525 212 526 203
           C527 194 527 186 526 175
           C525 164 523 150 520 138
           C517 126 513 118 508 112
           C503 106 496 102 488 100
           C480 98 470 98 461 101
           C452 104 444 110 437 116
           C430 122 424 129 417 137
           C410 145 402 153 393 162
           C384 171 374 181 361 193
           C348 205 333 218 319 229
           C305 240 292 249 280 256
           C268 263 257 268 244 273
           C231 278 217 283 203 288
           C189 293 175 299 160 305
           C145 311 130 318 115 325
           C100 332 85 339 72 344
           C59 349 48 353 39 356"
        fill="none" 
        stroke="rgba(255,255,255,0.28)" 
        stroke-width="14" 
        stroke-linecap="round"
        stroke-linejoin="round"
    />
    <!-- OPTIONAL: TRACK LABEL -->
    <text 
        x="40" 
        y="60" 
        font-size="22" 
        fill="#ffffff" 
        font-family="Arial" 
        stroke="#000" 
        stroke-width="0.6"
    >
        Circuit Gilles Villeneuve - Canada
    </text>

    <!-- OPTIONAL: SCALE POINTS FOR DEBUG -->
    <!--
    <circle cx="200" cy="200" r="4" fill="yellow" />
    <circle cx="300" cy="150" r="4" fill="yellow" />
    -->

</svg>
