<?xml version="1.0" encoding="UTF-8"?>
<svg xmlns="http://www.w3.org/2000/svg"
     viewBox="0 0 1200 800"
     preserveAspectRatio="xMidYMid meet">

  <!-- TRACK PATH - COTA -->
  <path id="trackPath"
        d="M 164 385
           C 190 350 210 325 240 310
           C 290 285 340 275 390 285
           C 430 295 460 315 490 340
           C 520 365 540 395 560 430
           C 575 460 585 485 585 515
           C 585 550 570 585 540 615
           C 510 645 465 665 415 670
           C 360 675 305 665 260 640
           C 220 620 190 590 170 555
           C 160 535 155 515 152 495
           C 150 475 152 455 160 435
           C 168 415 180 400 200 380
           C 230 350 270 330 320 320
           C 360 315 405 320 450 350
           C 480 370 500 400 520 430
           C 535 455 545 480 550 505
           C 555 535 550 560 530 585
           C 505 615 470 635 430 645
           C 390 655 345 655 305 645
           C 255 630 215 605 185 570
           C 165 545 155 520 152 495
           C 150 470 155 445 168 425
           C 185 395 210 372 240 352
           C 275 330 320 320 360 322
           C 410 325 455 345 490 375
           C 520 402 540 435 555 470
           C 565 495 568 520 565 545
           C 560 575 545 600 520 625
           C 490 655 450 675 405 682
           C 360 690 310 685 265 665
           C 225 645 195 615 175 580
           C 160 555 150 530 148 505
           C 146 480 150 455 160 435
           Z"
        stroke="#000"
        stroke-width="6"
        fill="none"/>

  <!-- START LINE -->
  <line x1="380" y1="275" x2="410" y2="280"
        stroke="#FF0000"
        stroke-width="6"/>

  <text x="390" y="265"
        font-size="26"
        font-weight="bold"
        fill="#FF0000">
    START
  </text>

  <style>
    #trackPath {
      stroke-linecap: round;
      stroke-linejoin: round;
    }
  </style>

</svg>
