<?xml version="1.0" encoding="UTF-8"?>
<svg
    width="2000"
    height="1250"
    viewBox="0 0 400 260"
    xmlns="http://www.w3.org/2000/svg">

    <!-- Traçado oficial IMOLA (Autodromo Enzo e Dino Ferrari) -->
    <path id="track-imola"
        fill="none"
        stroke="#ffffff"
        stroke-width="4"
        d="
            M45 210
            C60 205 70 200 85 190
            C100 180 108 170 120 160
            C132 150 145 142 160 138
            C175 134 195 132 212 135
            C229 138 245 146 260 158
            C275 170 288 187 295 202
            C302 217 304 230 300 242
            C296 254 286 263 272 268
            C258 273 238 275 220 273
            C202 271 185 265 170 256
            C155 247 142 235 132 222
            C122 209 114 194 110 180
            C106 166 105 153 108 142
            C111 131 118 122 130 115
            C142 108 160 104 178 105
            C196 106 214 113 232 125
            C250 137 268 155 280 173
            C292 191 298 209 298 225
            C298 241 292 254 280 263
            C268 272 250 277 230 277
            C210 277 188 271 168 260
            C148 249 130 233 118 216
            C106 199 100 181 100 166
            C210 118 219 111 226 103
            C233 95 239 85 242 75
            C245 65 245 55 242 47
            C239 39 233 32 224 28
            C215 24 204 22 194 24
            C184 26 175 31 168 39
            C161 47 156 57 153 68
            C150 79 150 91 154 101
            C158 111 165 120 175 126
            C185 132 197 135 209 134
            C221 133 232 128 241 121
            C250 114 258 104 262 94
            C266 84 266 74 263 66
            C260 58 254 52 245 48
            C236 44 224 43 214 45
            C204 47 195 51 187 58
            C179 65 173 74 170 84
            C167 94 167 105 171 114
            C175 123 182 131 191 137
            C200 143 211 146 222 145
            C233 144 243 140 252 134
            C261 128 268 120 272 111
            C276 102 277 93 275 86
            C273 79 268 73 261 69
            C254 65 244 63 234 65
            C224 67 214 72 206 80
            C198 88 192 98 189 108
            C186 118 186 129 190 138
            C194 147 201 155 210 160
            C219 165 230 167 241 166
            C252 165 262 161 271 155
            C280 149 287 141 291 132
            C295 123 296 113 294 105
            C292 97 287 90 279 86
            C271 82 261 81 251 83
            C241 85 231 90 223 98
            C215 106 209 116 206 126
            C203 136 203 147 207 156
            C211 165 218 173 227 178
            C236 183 247 186 258 185
            C269 184 279 180 288 174
            C297 168 304 160 308 151
            C312 142 313 132 311 124
            C309 116 304 109 296 105
            C288 101 278 100 268 102
            C258 104 248 109 240 117
            C232 125 226 135 223 145
            C220 155 220 166 224 175
            C228 184 235 192 244 197
            C253 202 264 204 275 203
            C286 202 296 198 305 192
            C314 186 321 178 325 169
            C329 160 330 150 328 142
            C326 134 321 127 313 123
            C305 119 295 118 285 120
            C275 122 265 127 257 135
            C249 143 243 153 240 163
            C237 173 237 184 241 193
            C245 202 252 210 261 215
            C270 220 281 222 292 221
            C303 220 313 216 322 210
            C331 204 338 196 342 187
            C346 178 347 168 345 160
            C343 152 338 145 330 141
            C322 137 312 136 302 138
            C292 140 282 145 274 153
            C266 161 260 171 257 181
            C254 191 254 202 258 211
            C262 220 269 228 278 233
            C287 238 298 240 309 239
            L309 239
            Z"
        stroke="#000"
        stroke-width="3"
        fill="none"
    />
</svg>

