<?xml version="1.0" encoding="UTF-8"?>
<svg xmlns="http://www.w3.org/2000/svg"
     viewBox="0 0 1200 800"
     preserveAspectRatio="xMidYMid meet">

  <!-- TRACK PATH - AUTODROMO JOSE CARLOS PACE (INTERLAGOS) -->
  <path id="trackPath"
        d="M 310 560
           C 300 535 290 510 295 485
           C 300 455 320 425 350 400
           C 375 380 410 365 450 360
           C 485 355 520 360 550 370
           C 580 380 605 395 630 420
           C 650 440 670 470 685 500
           C 700 530 708 560 708 590
           C 708 620 700 650 680 675
           C 665 695 640 715 610 730
           C 580 745 545 755 505 757
           C 460 760 420 750 380 732
           C 345 715 315 690 295 660
           C 275 630 265 595 270 565
           C 275 535 295 505 320 480
           C 350 450 385 430 425 420
           C 460 412 500 415 540 430
           C 580 445 610 470 630 500
           C 650 530 660 560 662 590
           C 664 615 660 640 645 660
           C 630 680 605 695 575 708
           C 540 722 500 728 460 725
           C 420 722 385 710 350 690
           C 320 672 295 648 280 620
           C 265 592 260 560 268 530
           C 275 500 295 470 320 450
           C 350 425 385 410 425 405
           C 465 400 505 405 540 420
           C 575 435 605 460 625 490
           C 645 520 660 550 665 580
           C 668 600 665 620 655 640
           C 645 660 630 675 610 690
           C 585 708 555 720 520 725
           C 480 730 440 725 402 710
           C 370 697 340 675 320 648
           C 300 622 290 592 292 565
           C 294 535 305 510 320 488
           Z"
        stroke="#000"
        stroke-width="6"
        fill="none"/>

  <!-- START / FINISH LINE -->
  <line x1="455" y1="360"
        x2="485" y2="362"
        stroke="#FF0000"
        stroke-width="6"/>

  <text x="450" y="345"
        font-size="26"
        font-weight="bold"
        fill="#FF0000">
    START
  </text>

  <style>
    #trackPath {
      stroke-linecap: round;
      stroke-linejoin: round;
    }
  </style>

</svg>
