<?xml version="1.0" encoding="UTF-8"?>
<svg xmlns="http://www.w3.org/2000/svg"
     viewBox="0 0 1200 800"
     preserveAspectRatio="xMidYMid meet">

  <!-- TRACK PATH - AUTODROMO HERMANOS RODRIGUEZ -->
  <path id="trackPath"
        d="M 320 520
           C 300 490 280 465 270 445
           C 260 420 255 395 260 370
           C 268 330 290 300 320 280
           C 360 255 410 240 460 245
           C 495 248 525 260 550 275
           C 585 295 615 320 640 350
           C 660 375 675 400 690 430
           C 705 460 712 490 712 515
           C 710 545 700 575 685 600
           C 665 630 640 655 610 675
           C 580 695 540 710 495 715
           C 450 720 405 715 360 700
           C 330 690 300 670 280 645
           C 260 620 250 590 250 560
           C 252 535 260 510 275 485
           C 295 455 315 430 345 415
           C 375 400 410 390 450 392
           C 485 394 520 405 550 425
           C 580 445 605 470 620 500
           C 630 520 635 540 637 560
           C 640 585 635 610 620 630
           C 605 650 585 665 555 678
           C 520 695 480 703 440 703
           C 405 703 370 695 340 680
           C 315 668 295 650 285 630
           C 270 605 265 580 270 555
           C 278 520 295 495 315 470
           C 335 445 360 425 390 410
           C 420 395 455 388 495 392
           C 530 395 565 408 595 430
           C 620 448 640 470 655 495
           C 670 520 680 545 680 570
           C 678 600 668 630 650 655
           C 630 680 605 700 575 715
           C 540 732 500 742 460 742
           C 420 742 380 733 345 715
           C 315 700 290 678 270 650
           C 250 620 240 585 243 555
           C 246 530 255 505 270 480
           Z"
        stroke="#000"
        stroke-width="6"
        fill="none"/>

  <!-- START / FINISH LINE -->
  <line x1="450" y1="240"
        x2="480" y2="243"
        stroke="#FF0000"
        stroke-width="6"/>

  <text x="450" y="225"
        font-size="26"
        font-weight="bold"
        fill="#FF0000">
    START
  </text>

  <style>
    #trackPath {
      stroke-linecap: round;
      stroke-linejoin: round;
    }
  </style>

</svg>
