<?xml version="1.0" encoding="UTF-8"?>
<svg
    width="2000"
    height="1250"
    viewBox="0 0 340 200"
    xmlns="http://www.w3.org/2000/svg">

    <!-- Traçado oficial MONACO (Monte Carlo) -->
    <path id="track-monaco"
        fill="none"
        stroke="#ffffff"
        stroke-width="4"
        d="
            M20 150
            C22 140 25 130 30 122
            C35 114 42 108 50 104
            C58 100 70 97 80 98
            C90 99 100 105 110 112
            C120 119 130 128 138 135
            C146 142 152 147 160 150
            C168 153 180 155 190 154
            C200 153 210 149 220 142
            C230 135 238 125 244 113
            C250 101 253 87 252 75
            C251 63 246 53 238 46
            C230 39 218 34 205 32
            C192 30 178 32 165 36
            C152 40 140 47 130 55
            C120 63 112 72 108 82
            C104 92 104 103 106 113
            C108 123 114 132 122 138
            C130 144 140 147 150 148
            C160 149 170 146 178 140
            C186 134 192 124 195 113
            C198 102 198 89 194 78
            C190 67 182 58 170 52
        C140 95 150 100 160 105
        C170 110 180 118 185 125
        C190 132 192 140 188 147
        C184 154 174 160 162 165
        C150 170 136 173 122 174
        C108 175 94 173 82 169
        C70 165 60 159 55 152
        C50 145 49 137 53 130
        C57 123 65 117 75 113
        C85 109 97 106 109 105
        C121 104 133 105 143 108
        C153 111 162 116 168 122
        C174 128 178 136 177 143
        C176 150 170 157 162 162
        C154 167 143 170 132 171
        C121 172 110 171 100 168
        C90 165 82 160 76 154
        C70 148 67 141 69 134
        C71 127 78 120 88 116
        C98 112 110 110 122 111
        C134 112 146 115 155 120
        C164 125 171 131 174 138
        C177 145 176 152 171 158
        C166 164 158 169 149 172
        C140 175 130 176 119 175
        C108 174 97 171 88 166
        C79 161 71 154 67 147
        C63 140 63 132 67 125
        C71 118 79 113 89 109
        C99 105 111 103 123 104
        C135 105 147 108 157 113
        C167 118 175 124 180 131
        C185 138 187 146 184 153
        C181 160 174 167 165 171
        C156 175 145 177 134 176
        C123 175 112 172 102 168
        C92 164 84 159 78 152
        C72 145 69 137 71 129
        C73 121 80 114 90 110
        C100 106 112 104 124 105
        C136 106 148 109 158 114
        C168 119 176 125 181 133
        C186 141 188 149 185 156
        C182 163 175 170 166 174
        C157 178 146 180 135 179
        C124 178 113 175 103 171
        C93 167 84 161 79 154
        C74 147 72 139 74 131
        C76 123 83 116 93 112
        C103 108 115 106 127 107
        C139 108 151 111 161 116
        C171 121 179 127 184 135
        C189 143 191 151 188 158
        C185 165 178 172 169 176
        C160 180 149 182 138 181
        Z"
      />
    </g>
  </svg>
