<?xml version="1.0" encoding="UTF-8"?>
<svg xmlns="http://www.w3.org/2000/svg"
     viewBox="0 0 1200 800"
     preserveAspectRatio="xMidYMid meet">

  <!-- TRACK PATH FROM ORIGINAL SHAPE -->
  <path id="trackPath"
        d="M 102 410
           L 140 398
           L 200 382
           L 260 370
           L 315 360
           L 365 355
           L 420 360
           L 470 375
           L 520 405
           L 560 440
           L 600 480
           L 635 520
           L 665 560
           L 690 600
           L 710 640
           L 725 680
           L 735 720
           L 750 760
           L 760 780
           L 785 795
           L 820 800
           L 865 790
           L 905 760
           L 935 720
           L 950 675
           L 950 620
           L 930 575
           L 895 535
           L 845 500
           L 790 470
           L 735 440
           L 685 415
           L 630 390
           L 575 370
           L 515 355
           L 450 345
           L 380 342
           L 310 345
           L 250 355
           L 190 370
           L 140 388
           L 102 410 Z"

        fill="none"
        stroke="#000"
        stroke-width="8"
        stroke-linecap="round"
        stroke-linejoin="round"/>

  <!-- START/FINISH LINE -->
  <line x1="140" y1="388"
        x2="190" y2="370"
        stroke="#FF0000"
        stroke-width="6"/>

  <text x="150" y="360"
        font-size="26"
        font-weight="bold"
        fill="#FF0000">
    START
  </text>

</svg>
