<?xml version="1.0" encoding="UTF-8"?>
<svg
    width="2000"
    height="1250"
    viewBox="0 0 529.17 330.73"
    xmlns="http://www.w3.org/2000/svg">

    <!-- TRAÇADO OFICIAL DE SHANGHAI (CHINA) — LIMPO E OTIMIZADO -->
    <path id="track-shanghai"
        fill="none"
        stroke="#ffffff"
        stroke-width="4"
        d="
            M501.11 113.99
            C491.98 119.91 473.71 131.75 462.81 138.80
            C451.91 145.86 448.38 148.13 444.29 151.09
            C440.20 154.05 435.54 157.71 419.42 171.06
            C403.29 184.41 375.70 207.46 361.52 219.37
            C347.34 231.27 346.58 231.99 345.99 232.64
            C345.43 233.29 344.95 233.94 344.74 234.46
            C344.52 234.98 344.45 235.48 344.47 235.95
            C344.50 236.41 344.60 236.85 344.82 237.29
            C345.04 237.73 345.39 238.17 345.92 238.71
            C346.45 239.26 347.12 239.90 347.69 240.49
            C348.26 241.08 348.74 241.64 349.05 242.11
            C349.37 242.59 349.56 243.01 349.63 243.40
            C349.70 243.79 349.66 244.14 349.53 244.63
            C349.40 245.12 349.18 245.66 348.90 246.16
            C348.62 246.65 348.30 247.06 347.82 247.43
            C347.34 247.80 346.70 248.12 345.83 248.42
            C344.96 248.72 343.89 248.99 342.79 249.19
            C341.69 249.39 340.56 249.53 339.57 249.64
            C338.58 249.75 337.73 249.82 336.52 249.85
            C335.31 249.88 333.73 249.87 332.03 249.90
            C330.33 249.92 328.51 249.98 327.18 250.12
            C325.85 250.26 325.01 250.48 324.20 250.70
            C323.39 250.92 322.58 251.19 321.49 251.61
            C320.40 252.03 319.03 252.59 317.66 253.22
            C316.29 253.84 314.89 254.52 313.39 255.31
            C311.89 256.10 310.27 257.03 308.50 258.08
            C306.73 259.12 304.88 260.21 302.93 261.34
            C300.98 262.47 298.96 263.64 296.89 264.82
            C294.82 266.00 292.74 267.16 290.63 268.30
            C288.53 269.44 286.40 270.56 284.29 271.67
            C282.17 272.78 280.08 273.86 278.00 274.93
            C275.92 276.00 273.87 277.05 271.86 278.12
            C269.80 279.19 267.76 280.36 265.70 281.55
            C263.64 282.75 261.58 283.98 259.53 285.20
            C257.48 286.42 255.46 287.60 253.45 288.77
            C251.44 289.94 249.46 291.09 247.49 292.22
            C245.52 293.35 243.57 294.47 241.63 295.57
            C239.69 296.67 237.78 297.75 235.88 298.81
            C233.98 299.87 232.10 300.90 230.26 301.95
            C228.42 302.99 226.62 304.05 224.86 305.07
            C223.10 306.10 221.39 307.10 219.72 308.06
            C218.05 309.02 216.43 309.94 214.86 310.84
            C213.29 311.74 211.77 312.62 210.31 313.47
            C208.85 314.32 207.44 315.16 206.09 315.97
            C204.74 316.78 203.45 317.57 202.23 318.31
            C201.01 319.06 199.86 319.77 198.78 320.45
            C197.70 321.13 196.69 321.79 195.76 322.40
            C194.83 323.01 193.98 323.58 193.21 324.12
            C192.44 324.66 191.75 325.17 191.14 325.64
            C190.53 326.11 190.01 326.55 189.58 326.95
            C189.15 327.35 188.81 327.71 188.56 328.04
            C188.31 328.37 188.15 328.66 188.09 328.92
            C188.03 329.18 188.06 329.41 188.18 329.69
            C188.30 329.97 188.51 330.30 188.81 330.67
            C189.11 331.04 189.50 331.45 189.98 331.90
            C190.46 332.35 191.03 332.84 191.69 333.36
            C192.35 333.88 193.10 334.43 193.94 335.00
            C194.78 335.57 195.72 336.17 196.75 336.78
            C197.78 337.39 198.90 338.02 200.11 338.67
            C201.32 339.32 202.63 339.99 204.04 340.69
            C205.45 341.38 206.95 342.09 208.55 342.82
            C210.15 343.55 211.85 344.30 213.64 345.06
            C215.43 345.81 217.32 346.58 219.30 347.36
            C221.28 348.14 223.36 348.93 225.53 349.73
            C227.70 350.53 229.96 351.34 232.31 352.15
            C234.66 352.96 237.11 353.77 239.65 354.58
            C242.19 355.39 244.82 356.19 247.55 356.99
            C250.28 357.79 253.10 358.58 256.02 359.35
            C258.94 360.12 261.96 360.88 265.07 361.61
            C268.18 362.34 271.39 363.04 274.69 363.71
            C277.99 364.38 281.39 365.02 284.89 365.63
            C288.39 366.24 291.98 366.81 295.67 367.34
            C299.36 367.87 303.14 368.36 307.02 368.80
            C310.90 369.24 314.88 369.63 318.95 369.96
            C323.02 370.29 327.18 370.57 331.44 370.79
            C335.70 371.01 340.06 371.17 344.51 371.26
            C348.96 371.36 353.51 371.39 358.15 371.34
            C362.79 371.29 367.53 371.17 372.36 370.97
            C377.19 370.77 382.12 370.49 387.14 370.13
            C392.16 369.77 397.27 369.34 402.47 368.82
            C407.67 368.30 412.96 367.70 418.34 367.02
            C423.72 366.34 429.18 365.57 434.73 364.72
            C440.28 363.87 445.92 362.93 451.64 361.90
            C457.36 360.87 463.17 359.75 469.07 358.55
            C474.97 357.35 480.95 356.06 487.02 354.68
            C493.09 353.30 499.24 351.83 505.48 350.27
            C511.72 348.71 518.05 347.06 524.46 345.32
            C526.13 344.85 527.80 344.38 529.17 343.99
        "
    />
        <!-- Fim do traçado -->
        />

</svg>
