<?xml version="1.0" encoding="UTF-8"?>
<svg 
    width="900" 
    height="700" 
    viewBox="0 0 900 700" 
    xmlns="http://www.w3.org/2000/svg">

    <!-- BACKGROUND -->
    <rect width="100%" height="100%" fill="#0c0c0c"/>

    <!-- TRACK SHADOW (deep layer) -->
    <path 
        d="M700 300
           C750 280 760 250 740 220
           C720 190 670 170 620 160
           C570 150 520 150 480 160
           C440 170 400 190 370 220
           C340 250 320 290 330 330
           C340 370 380 400 430 420
           C480 440 540 450 600 440
           C660 430 710 400 730 360
           C750 320 740 310 700 300 Z"
        stroke="rgba(255,255,255,0.18)"
        stroke-width="28"
        stroke-linecap="round"
        stroke-linejoin="round"
        fill="none"
    />

    <!-- TRACK SHADOW (inner) -->
    <path 
        d="M700 300
           C750 280 760 250 740 220
           C720 190 670 170 620 160
           C570 150 520 150 480 160
           C440 170 400 190 370 220
           C340 250 320 290 330 330
           C340 370 380 400 430 420
           C480 440 540 450 600 440
           C660 430 710 400 730 360
           C750 320 740 310 700 300 Z"
        stroke="rgba(255,255,255,0.32)"
        stroke-width="16"
        stroke-linecap="round"
        stroke-linejoin="round"
        fill="none"
    />

    <!-- FINAL TRACK LINE -->
    <path 
        d="M700 300
           C750 280 760 250 740 220
           C720 190 670 170 620 160
           C570 150 520 150 480 160
           C440 170 400 190 370 220
           C340 250 320 290 330 330
           C340 370 380 400 430 420
           C480 440 540 450 600 440
           C660 430 710 400 730 360
           C750 320 740 310 700 300 Z"
        stroke="#ffffff"
        stroke-width="10"
        stroke-linecap="round"
        stroke-linejoin="round"
        fill="none"
    />

    <!-- START/FINISH LINE -->
    <rect 
        x="685" 
        y="295" 
        width="26" 
        height="9" 
        fill="#ffffff"
    />
    <rect 
        x="685" 
        y="295" 
        width="26" 
        height="9" 
        fill="none" 
        stroke="#000" 
        stroke-width="1"
    />

    <!-- START POINT MARKER -->
    <circle 
        cx="698" 
        cy="299" 
        r="5" 
        fill="#ff0000"
    />

    <!-- CIRCUIT LABEL -->
    <text 
        x="40" 
        y="70" 
        font-size="28" 
        fill="#ffffff" 
        font-family="Arial" 
        stroke="#000" 
        stroke-width="0.8"
    >
        Silverstone Circuit - United Kingdom
    </text>

    <!-- (Optional) Debug nodes -->
    <!-- <circle cx="500" cy="300" r="5" fill="yellow"/> -->

</svg>
