<?xml version="1.0" encoding="UTF-8"?>
<svg
   width="2e3"
   height="1250"
   version="1.1"
   viewBox="0 0 595 357"
   xmlns="http://www.w3.org/2000/svg"
   xmlns:cc="http://creativecommons.org/ns#"
   xmlns:dc="http://purl.org/dc/elements/1.1/"
   xmlns:rdf="http://www.w3.org/1999/02/22-rdf-syntax-ns#"
   xmlns:xlink="http://www.w3.org/1999/xlink">

  <defs>
    <marker id="marker5000" overflow="visible" orient="auto">
      <path transform="matrix(.8 0 0 .8 10 0)"
        d="m0 0 5-5-17.5 5 17.5 5z"
        fill="#cf000f"
        fill-rule="evenodd"
        stroke="#cf000f"
        stroke-width="1pt"/>
    </marker>

    <marker id="marker1560" overflow="visible" orient="auto">
      <path transform="matrix(.8 0 0 .8 10 0)"
        d="m0 0 5-5-17.5 5 17.5 5z"
        fill-rule="evenodd"
        stroke="#000"
        stroke-width="1pt"/>
    </marker>
    <pattern id="pattern4550" patternTransform="matrix(2.4813 0 0 2.4813 388.69 -226.65)" xlink:href="#Checkerboard"/>
    <pattern id="Checkerboard" width="2" height="2" patternTransform="translate(0) scale(10)" patternUnits="userSpaceOnUse">
      <rect width="1" height="1"/>
      <rect x="1" y="1" width="1" height="1"/>
    </pattern>
  </defs>

  <metadata>
    <rdf:RDF>
      <cc:Work rdf:about="">
        <dc:format>image/svg+xml</dc:format>
        <dc:type rdf:resource="http://purl.org/dc/dcmitype/StillImage"/>
        <dc:title/>
      </cc:Work>
    </rdf:RDF>
  </metadata>

  <g transform="translate(-10 -60)">
    <path id="trackPath"
      d="m498.21 123.78c-12.94 4.63-24.77 9.8-36.81 15.95-12.05 6.15-24.3 13.29-36.87 20.58-12.57 7.29-25.46 14.74-38.37 22.61-12.92 7.88-25.86 16.16-38.92 24.67-13.06 8.5-26.24 17.23-39.74 26.09-13.5 8.86-27.32 17.84-41.21 26.76-13.89 8.92-27.85 17.78-41.87 26.45-14.03 8.67-28.12 17.15-42.21 25.41-14.09 8.26-28.17 16.29-42.39 24.12-14.22 7.82-28.59 15.45-43.16 22.91-14.58 7.46-29.36 14.75-44.47 21.87-15.11 7.12-30.54 14.05-46.3 20.82"
      fill="none"
      stroke="#000"
      stroke-width="4"
      stroke-linecap="round"
      stroke-linejoin="round"/>
  </g>

  <style>
    #trackPath {
      stroke: #000;
      stroke-width: 3.8;
      fill: none;
    }
  </style>
</svg>
