<?xml version="1.0" encoding="UTF-8"?>
<svg 
    width="900" 
    height="700" 
    viewBox="0 0 900 700" 
    xmlns="http://www.w3.org/2000/svg">

    <!-- BACKGROUND -->
    <rect width="100%" height="100%" fill="#0c0c0c"/>

    <!-- DEEP SHADOW -->
    <path 
        d="M720 380
           C700 350 680 320 650 300
           C620 280 580 270 530 270
           C480 270 430 280 390 300
           C350 320 330 340 330 360
           C330 380 350 400 380 420
           C410 440 450 455 490 460
           C530 465 580 460 620 450
           C660 440 690 420 710 400
           C730 380 740 360 740 340
           C740 320 730 300 720 280
           C710 260 690 240 660 220
           C630 200 590 185 540 180
           C490 175 430 180 380 200
           C330 220 300 250 280 290
           C260 330 260 370 280 410
           C300 450 340 490 390 510
           C440 530 500 535 560 530
           C620 525 670 510 710 490
           C750 470 780 450 800 430
           C820 410 830 390 830 370"
        stroke="rgba(255,255,255,0.18)"
        stroke-width="32"
        stroke-linecap="round"
        stroke-linejoin="round"
        fill="none"
    />

    <!-- INNER SHADOW -->
    <path 
        d="M720 380
           C700 350 680 320 650 300
           C620 280 580 270 530 270
           C480 270 430 280 390 300
           C350 320 330 340 330 360
           C330 380 350 400 380 420
           C410 440 450 455 490 460
           C530 465 580 460 620 450
           C660 440 690 420 710 400
           C730 380 740 360 740 340
           C740 320 730 300 720 280
           C710 260 690 240 660 220
           C630 200 590 185 540 180
           C490 175 430 180 380 200
           C330 220 300 250 280 290
           C260 330 260 370 280 410
           C300 450 340 490 390 510
           C440 530 500 535 560 530
           C620 525 670 510 710 490
           C750 470 780 450 800 430
           C820 410 830 390 830 370"
        stroke="rgba(255,255,255,0.35)"
        stroke-width="18"
        stroke-linecap="round"
        stroke-linejoin="round"
        fill="none"
    />

    <!-- TRACK LINE -->
    <path 
        d="M720 380
           C700 350 680 320 650 300
           C620 280 580 270 530 270
           C480 270 430 280 390 300
           C350 320 330 340 330 360
           C330 380 350 400 380 420
           C410 440 450 455 490 460
           C530 465 580 460 620 450
           C660 440 690 420 710 400
           C730 380 740 360 740 340
           C740 320 730 300 720 280
           C710 260 690 240 660 220
           C630 200 590 185 540 180
           C490 175 430 180 380 200
           C330 220 300 250 280 290
           C260 330 260 370 280 410
           C300 450 340 490 390 510
           C440 530 500 535 560 530
           C620 525 670 510 710 490
           C750 470 780 450 800 430
           C820 410 830 390 830 370"
        stroke="#ffffff"
        stroke-width="10"
        stroke-linecap="round"
        stroke-linejoin="round"
        fill="none"
    />

    <!-- START/FINISH LINE -->
    <rect 
        x="705" 
        y="373" 
        width="28" 
        height="8" 
        fill="#ffffff"
    />
    <rect 
        x="705" 
        y="373" 
        width="28" 
        height="8" 
        fill="none" 
        stroke="#000" 
        stroke-width="1"
    />

    <!-- START POINT MARKER -->
    <circle 
        cx="719" 
        cy="377" 
        r="6" 
        fill="#ff0000"
    />

    <!-- TRACK LABEL -->
    <text 
        x="40" 
        y="70" 
        font-size="28" 
        fill="#ffffff" 
        font-family="Arial" 
        stroke="#000" 
        stroke-width="0.8"
    >
        Circuit de Spa-Francorchamps - Belgium
    </text>

</svg>
