<?xml version="1.0" encoding="UTF-8"?>
<svg
    width="2000"
    height="1250"
    viewBox="0 0 420 260"
    xmlns="http://www.w3.org/2000/svg">

    <!-- Traçado oficial Circuit de Barcelona-Catalunya (Spain GP) -->
    <path id="track-spain"
        fill="none"
        stroke="#ffffff"
        stroke-width="4"
        d="
            M40 200
            C55 195 68 190 80 182
            C92 174 102 162 110 150
            C118 138 124 125 128 113
            C132 101 135 88 135 77
            C135 66 132 56 126 48
            C120 40 110 34 100 32
            C90 30 78 32 68 37
            C58 42 50 50 46 60
            C42 70 42 82 45 94
            C48 106 55 118 65 129
            C75 140 88 149 102 155
            C116 161 132 164 148 163
            C164 162 180 157 194 149
            C208 141 220 130 229 118
            C238 106 245 93 248 80
            C251 67 250 55 246 45
            C242 35 234 27 223 23
            C212 19 198 18 185 21
            C172 24 160 31 150 40
            C140 49 132 60 128 72
            C124 84 124 97 127 108
            C130 119 136 129 145 136
            C154 143 166 146 178 146
            C190 146 202 142 212 135
            C222 128 230 118 235 107
      d="
        M120 40
        C150 38 180 38 210 40
        C240 42 270 48 295 60
        C320 72 340 90 350 112
        C360 134 360 160 350 182
        C340 204 320 222 295 234
        C270 246 240 252 210 254
        C180 256 150 256 120 254
        C90 252 60 246 35 234
        C10 222 -10 204 -20 182
        C-30 160 -30 134 -20 112
        C-10 90 10 72 35 60
        C60 48 90 42 120 40
        Z

        M210 110
        C220 109 230 110 240 112
        C250 114 260 118 267 124
        C274 130 278 138 276 146
        C274 154 266 162 255 167
        C244 172 230 174 215 173
        C200 172 185 168 174 161
        C163 154 155 144 157 135
        C159 126 168 118 181 114
        C194 110 200 109 210 110
        Z
      "/>

  <!-- TRACK OUTLINE -->
  <path
    d="
      M120 40
      C150 38 180 38 210 40
      C240 42 270 48 295 60
      C320 72 340 90 350 112
      C360 134 360 160 350 182
      C340 204 320 222 295 234
      C270 246 240 252 210 254
      C180 256 150 256 120 254
      C90 252 60 246 35 234
      C10 222 -10 204 -20 182
      C-30 160 -30 134 -20 112
      C-10 90 10 72 35 60
      C60 48 90 42 120 40
      Z
    "
    stroke="#ffffff"
    stroke-width="6"
    fill="none"
    stroke-linecap="round"
    stroke-linejoin="round"
  />

  <!-- FINISH LINE -->
  <rect x="208" y="36" width="14" height="14" fill="white" stroke="black" stroke-width="1"/>
  <rect x="215" y="36" width="14" height="14" fill="black"/>

</svg>
